<?xml version="1.0" encoding="UTF-8"?><svg id="Layer_1" xmlns="http://www.w3.org/2000/svg" viewBox="0 0 176 56.63"><defs><style>.cls-1{fill:#fff;stroke-width:0px;}</style></defs><path class="cls-1" d="m47.1,9.83l-.94,1.96c-1.57-1.57-3.79-2.47-6.25-2.47-5.74,0-9.79,4.55-9.79,11.06s4.04,11.02,9.79,11.02c2.17,0,4.13-.72,5.66-2v.68c0,2.6-2.21,4.38-5.4,4.38-1.87,0-4.3-.51-6.94-1.7l-2.04,5.49c3.36,1.36,6.64,2,9.62,2,7.06,0,12.25-4.38,12.25-10.47V9.83h-5.96Zm-1.4,11.66c0,2.34-1.53,4.04-3.79,4.04-2.43,0-4.13-2.13-4.13-5.15s1.7-5.19,4.13-5.19c2.25,0,3.79,1.7,3.79,4.08v2.21Z"/><path class="cls-1" d="m58.59,0c2.51,0,4.3,1.79,4.3,4.3s-1.79,4.25-4.3,4.25-4.25-1.79-4.25-4.25S56.12,0,58.59,0Z"/><rect class="cls-1" x="54.84" y="9.83" width="7.49" height="21.06"/><polygon class="cls-1" points="79.95 30.89 73.06 30.89 64.55 9.83 72.38 9.83 76.51 22.47 80.63 9.83 88.46 9.83 79.95 30.89"/><path class="cls-1" d="m109.57,20.04c0-6.34-4.38-10.72-10.68-10.72-6.68,0-11.36,4.55-11.36,11.06s4.89,11.02,12.04,11.02c2.64,0,5.79-.68,8.98-2.17l-2.21-5.02c-2.13,1.11-4.13,1.7-5.83,1.7-2.81,0-4.94-1.4-5.49-3.62h14.42c.09-.72.13-1.49.13-2.25Zm-14.55-2.13c.43-1.87,1.91-3.11,3.87-3.11s3.23,1.23,3.49,3.11h-7.36Z"/><path class="cls-1" d="m111.72,9.83h5.96l.94,2.64c1.28-1.87,3.4-2.98,5.87-2.98.68,0,1.62.13,2.43.3l-.64,5.91c-.68-.13-1.57-.26-2.43-.26-2.85,0-4.64,2.08-4.64,5.11v10.34h-7.49V9.83Z"/><path class="cls-1" d="m144.51,9.83l-.94,1.96c-1.57-1.57-3.79-2.47-6.25-2.47-5.74,0-9.79,4.55-9.79,11.06s4.04,11.02,9.79,11.02c2.17,0,4.13-.72,5.66-2v.68c0,2.6-2.21,4.38-5.4,4.38-1.87,0-4.3-.51-6.93-1.7l-2.04,5.49c3.36,1.36,6.64,2,9.62,2,7.06,0,12.25-4.38,12.25-10.47V9.83h-5.96Zm-1.4,11.66c0,2.34-1.53,4.04-3.79,4.04-2.43,0-4.13-2.13-4.13-5.15s1.7-5.19,4.13-5.19c2.25,0,3.79,1.7,3.79,4.08v2.21Z"/><path class="cls-1" d="m167.02,32.51c-2,5.15-5.19,7.74-9.49,7.74-.98,0-2.3-.13-3.62-.43l.94-5.79c.72.17,1.4.26,1.91.26,1.66,0,2.72-.81,3.49-2.77l.38-.94-8.55-20.76h7.83l4.13,12.64,4.13-12.64h7.83l-8.98,22.68Z"/><path class="cls-1" d="m23.98,19.07c-.31-3.06-1.27-5.92-2.73-8.46C17.58,4.27,10.73,0,2.87,0c0,0-.02,0-.03,0C1.04,3.12,0,6.75,0,10.61s1.04,7.49,2.85,10.61c-1.81,3.12-2.85,6.74-2.85,10.61s1.04,7.48,2.84,10.6c.01,0,.02,0,.03,0,7.85,0,14.7-4.27,18.37-10.6h0c.45-.78.86-1.59,1.21-2.43.09-.21.17-.42.25-.63.33-.85.6-1.73.81-2.63.05-.23.1-.45.15-.68.19-.91.31-1.85.38-2.8.03-.48.05-.95.05-1.44,0-.72-.04-1.44-.11-2.15ZM1.45,10.61c0-3.19.77-6.33,2.25-9.15,6.46.27,12.44,3.73,15.9,9.21-6.59.5-12.33,4.01-15.86,9.15-1.49-2.83-2.28-6-2.28-9.21Zm2.24,30.36c-1.47-2.81-2.24-5.95-2.24-9.14s.79-6.38,2.28-9.21c3.54,5.14,9.27,8.65,15.86,9.15-3.47,5.48-9.44,8.93-15.9,9.2Zm18.94-19.13c0,.07,0,.14,0,.21,0,.14-.01.28-.02.42,0,.08-.01.16-.02.24,0,.13-.02.25-.03.38,0,.09-.02.17-.03.26-.01.12-.03.24-.04.36-.01.09-.02.18-.04.27-.02.12-.03.23-.05.35-.01.09-.03.18-.04.27-.02.12-.04.23-.06.35-.02.09-.03.18-.05.27-.02.12-.05.23-.08.35-.02.09-.04.17-.06.26-.03.12-.06.23-.09.35-.02.08-.04.17-.07.25-.03.12-.07.24-.1.36-.02.08-.05.16-.07.24-.04.13-.08.26-.12.38-.02.07-.04.14-.07.21-.05.16-.11.32-.17.48-.01.03-.02.07-.04.1-.07.19-.15.39-.23.58-.02.05-.05.11-.07.16-.06.14-.12.27-.18.41-.03.07-.07.14-.1.21-.05.12-.11.23-.17.35-.04.08-.08.15-.12.23-.04.08-.08.16-.12.23-6.43-.27-12.39-3.7-15.86-9.14,3.47-5.44,9.42-8.87,15.86-9.14.04.08.08.15.12.23.04.08.08.15.12.23.06.11.11.23.16.34.03.07.07.14.1.22.06.13.12.27.17.4.02.06.05.11.07.17.08.19.15.38.23.58.01.04.03.08.04.12.06.16.11.31.17.47.02.07.05.14.07.21.04.13.08.25.12.38.02.08.05.16.07.24.03.12.07.24.1.35.02.09.04.17.07.26.03.11.06.23.09.35.02.09.04.18.06.26.03.11.05.23.07.34.02.09.04.18.05.27.02.11.04.23.06.35.02.09.03.18.04.27.02.12.04.23.05.35.01.09.03.18.04.27.02.12.03.24.04.36,0,.09.02.17.03.26.01.12.02.25.03.38,0,.08.01.16.02.25,0,.14.01.28.02.42,0,.07,0,.14,0,.21,0,.21.01.42.01.62s0,.42-.01.62Z"/><path class="cls-1" d="m84.04,54.04c.02-.39.05-.96.05-1.46v-6.84h1.02v3.56h.02c.36-.63,1.02-1.04,1.93-1.04,1.4,0,2.4,1.17,2.39,2.89,0,2.02-1.28,3.03-2.54,3.03-.82,0-1.47-.32-1.9-1.07h-.03l-.05.94h-.89Zm1.06-2.27c0,.13.02.26.05.37.2.71.8,1.21,1.54,1.21,1.08,0,1.72-.88,1.72-2.18,0-1.14-.59-2.11-1.69-2.11-.7,0-1.36.48-1.57,1.26-.02.12-.06.26-.06.42v1.02Z"/><path class="cls-1" d="m91.04,48.38l1.24,3.35c.13.37.27.82.36,1.16h.02c.11-.34.22-.77.36-1.18l1.12-3.32h1.09l-1.54,4.04c-.74,1.94-1.24,2.94-1.94,3.55-.5.44-1.01.62-1.26.67l-.26-.87c.26-.08.6-.24.9-.5.28-.22.63-.62.87-1.15.05-.11.08-.19.08-.25s-.02-.14-.07-.27l-2.09-5.22h1.12Z"/><path class="cls-1" d="m99.64,48.67c0-.76-.02-1.39-.06-1.99h1.17l.06,1.19h.05c.41-.7,1.1-1.35,2.31-1.35,1,0,1.77.61,2.08,1.48h.03c.23-.41.52-.73.82-.96.44-.33.93-.52,1.63-.52.97,0,2.42.64,2.42,3.2v4.34h-1.31v-4.17c0-1.42-.52-2.27-1.6-2.27-.76,0-1.35.56-1.58,1.22-.06.18-.11.43-.11.67v4.55h-1.31v-4.41c0-1.17-.52-2.02-1.54-2.02-.84,0-1.45.67-1.66,1.34-.08.2-.11.43-.11.66v4.44h-1.31v-5.37Z"/><path class="cls-1" d="m118.91,50.3c0,2.72-1.89,3.91-3.67,3.91-1.99,0-3.53-1.46-3.53-3.79,0-2.47,1.61-3.91,3.65-3.91s3.55,1.54,3.55,3.79Zm-5.84.08c0,1.61.93,2.83,2.24,2.83s2.24-1.2,2.24-2.86c0-1.25-.62-2.83-2.21-2.83s-2.27,1.46-2.27,2.86Z"/><path class="cls-1" d="m120.51,48.67c0-.76-.02-1.39-.06-1.99h1.17l.06,1.19h.05c.41-.7,1.1-1.35,2.31-1.35,1,0,1.77.61,2.08,1.48h.03c.23-.41.52-.73.82-.96.44-.33.93-.52,1.63-.52.97,0,2.42.64,2.42,3.2v4.34h-1.31v-4.17c0-1.42-.52-2.27-1.6-2.27-.76,0-1.35.56-1.58,1.22-.06.18-.11.43-.11.67v4.55h-1.31v-4.41c0-1.17-.52-2.02-1.54-2.02-.84,0-1.45.67-1.66,1.34-.08.2-.11.43-.11.66v4.44h-1.31v-5.37Z"/><path class="cls-1" d="m139.79,50.3c0,2.72-1.89,3.91-3.67,3.91-1.99,0-3.53-1.46-3.53-3.79,0-2.47,1.61-3.91,3.65-3.91s3.55,1.54,3.55,3.79Zm-5.84.08c0,1.61.93,2.83,2.24,2.83s2.24-1.2,2.24-2.86c0-1.25-.62-2.83-2.21-2.83s-2.27,1.46-2.27,2.86Z"/><path class="cls-1" d="m149.36,53.59c-.59.21-1.77.56-3.15.56-1.55,0-2.83-.4-3.84-1.35-.88-.85-1.43-2.22-1.43-3.82.01-3.06,2.12-5.3,5.56-5.3,1.19,0,2.12.26,2.56.47l-.32,1.08c-.55-.24-1.23-.44-2.27-.44-2.5,0-4.12,1.55-4.12,4.12s1.57,4.14,3.96,4.14c.87,0,1.46-.12,1.77-.27v-3.06h-2.09v-1.07h3.38v4.93Z"/><path class="cls-1" d="m158.04,50.3c0,2.72-1.89,3.91-3.67,3.91-1.99,0-3.53-1.46-3.53-3.79,0-2.47,1.61-3.91,3.65-3.91s3.55,1.54,3.55,3.79Zm-5.84.08c0,1.61.93,2.83,2.24,2.83s2.24-1.2,2.24-2.86c0-1.25-.62-2.83-2.21-2.83s-2.27,1.46-2.27,2.86Z"/><path class="cls-1" d="m166.4,50.3c0,2.72-1.89,3.91-3.67,3.91-1.99,0-3.53-1.46-3.53-3.79,0-2.47,1.61-3.91,3.65-3.91s3.55,1.54,3.55,3.79Zm-5.84.08c0,1.61.93,2.83,2.24,2.83s2.24-1.2,2.24-2.86c0-1.25-.62-2.83-2.21-2.83s-2.27,1.46-2.27,2.86Z"/><path class="cls-1" d="m174.45,43.24v8.9c0,.65.01,1.4.06,1.9h-1.2l-.06-1.28h-.03c-.41.82-1.31,1.45-2.51,1.45-1.78,0-3.15-1.51-3.15-3.74-.02-2.45,1.51-3.96,3.3-3.96,1.13,0,1.89.53,2.22,1.13h.03v-4.4h1.34Zm-1.34,6.44c0-.17-.02-.4-.06-.56-.2-.85-.93-1.55-1.93-1.55-1.39,0-2.21,1.22-2.21,2.85,0,1.49.73,2.72,2.18,2.72.9,0,1.72-.59,1.96-1.6.05-.18.06-.36.06-.58v-1.28Z"/></svg>